# xmcd
#
# Track frame offsets:
#	150
#	15753
#	38609
#	72137
#	91373
#
# Disc length: 1432 seconds
#
# Revision: 1
# Processed by: cddbd v1.5.2PL0 Copyright (c) Steve Scherf et al.
# Submitted via: audiograbber 1.83.01
#
DISCID=2b059605
DTITLE=Ulli Arnold - Offenes Herz
DYEAR=1900
DGENRE=
TTITLE0=Offenes Herz (Edit)
TTITLE1=Die zeit der Narren ist vorbei (Album Version)
TTITLE2=Offenes Herz (Album Version)
TTITLE3=Hipp, hipp, hey, hey (Live 2017 @ Chemnitz)
TTITLE4=Der flüchtende (Live 2017 @ Berlin)
EXTD=
EXTT0=
EXTT1=
EXTT2=
EXTT3=
EXTT4=
PLAYORDER=
